<svg width="25" height="24" viewBox="0 0 25 24" fill="none" xmlns="http://www.w3.org/2000/svg">
<path d="M10.6973 1.16429C11.9385 0.444284 13.4703 0.444285 14.7115 1.16429L17.8944 3.01066L21.0849 4.84395C22.329 5.55886 23.0949 6.88542 23.092 8.32034L23.0844 12L23.092 15.6797C23.0949 17.1146 22.329 18.4411 21.0849 19.1561L17.8944 20.9893L14.7115 22.8357C13.4703 23.5557 11.9385 23.5557 10.6973 22.8357L7.51441 20.9893L4.32396 19.1561C3.07981 18.4411 2.31392 17.1146 2.31686 15.6797L2.32441 12L2.31686 8.32034C2.31392 6.88542 3.07981 5.55886 4.32396 4.84395L7.51441 3.01066L10.6973 1.16429Z" fill="#FFCA28"/>
<g clip-path="url(#clip0_707_6006)">
<path d="M12.7044 9L14.7044 12L17.2044 10L16.2044 15H9.20441L8.20441 10L10.7044 12L12.7044 9Z" fill="white" stroke="white" stroke-width="1.5" stroke-linecap="round" stroke-linejoin="round"/>
</g>
<defs>
<clipPath id="clip0_707_6006">
<rect width="12" height="12" fill="white" transform="translate(6.70441 6)"/>
</clipPath>
</defs>
</svg>
