<svg width="25" height="25" viewBox="0 0 25 25" fill="none" xmlns="http://www.w3.org/2000/svg">
<path d="M10.6972 1.44261C11.9385 0.722605 13.4702 0.722605 14.7114 1.44261L17.8943 3.28898L21.0848 5.12227C22.3289 5.83718 23.0948 7.16374 23.0919 8.59867L23.0843 12.2783L23.0919 15.958C23.0948 17.3929 22.3289 18.7195 21.0848 19.4344L17.8943 21.2677L14.7114 23.114C13.4702 23.834 11.9385 23.834 10.6972 23.114L7.51435 21.2677L4.3239 19.4344C3.07975 18.7195 2.31386 17.3929 2.3168 15.958L2.32435 12.2783L2.3168 8.59867C2.31386 7.16374 3.07975 5.83718 4.3239 5.12227L7.51435 3.28898L10.6972 1.44261Z" fill="#F6B191"/>
<g clip-path="url(#clip0_707_6041)">
<path d="M12.7043 9.27832L14.7043 12.2783L17.2043 10.2783L16.2043 15.2783H9.20435L8.20435 10.2783L10.7043 12.2783L12.7043 9.27832Z" fill="white" stroke="white" stroke-width="1.5" stroke-linecap="round" stroke-linejoin="round"/>
</g>
<defs>
<clipPath id="clip0_707_6041">
<rect width="12" height="12" fill="white" transform="translate(6.70435 6.27832)"/>
</clipPath>
</defs>
</svg>
