<svg width="25" height="25" viewBox="0 0 25 25" fill="none" xmlns="http://www.w3.org/2000/svg">
<path d="M10.6973 1.80394C11.9385 1.08393 13.4703 1.08393 14.7115 1.80394L17.8944 3.6503L21.0849 5.4836C22.329 6.19851 23.0949 7.52507 23.092 8.95999L23.0844 12.6396L23.092 16.3193C23.0949 17.7542 22.329 19.0808 21.0849 19.7957L17.8944 21.629L14.7115 23.4754C13.4703 24.1954 11.9385 24.1954 10.6973 23.4754L7.51441 21.629L4.32396 19.7957C3.07981 19.0808 2.31392 17.7542 2.31686 16.3193L2.32441 12.6396L2.31686 8.95999C2.31392 7.52507 3.07981 6.19851 4.32396 5.4836L7.51441 3.6503L10.6973 1.80394Z" fill="#1B4CA1"/>
<g clip-path="url(#clip0_707_6024)">
<path d="M12.7044 9.63965L14.7044 12.6396L17.2044 10.6396L16.2044 15.6396H9.20441L8.20441 10.6396L10.7044 12.6396L12.7044 9.63965Z" fill="white" stroke="white" stroke-width="1.5" stroke-linecap="round" stroke-linejoin="round"/>
</g>
<defs>
<clipPath id="clip0_707_6024">
<rect width="12" height="12" fill="white" transform="translate(6.70441 6.63965)"/>
</clipPath>
</defs>
</svg>
