<svg width="51" height="51" viewBox="0 0 51 51" fill="none" xmlns="http://www.w3.org/2000/svg">
<g clip-path="url(#clip0_707_6071)">
<path d="M26.6331 10.2292C27.0704 9.58551 27.1332 8.72377 26.7183 8.00517C26.4411 7.52509 25.9846 7.17478 25.4491 7.0313C24.9137 6.88783 24.3431 6.96294 23.863 7.24011C23.383 7.51729 23.0326 7.97383 22.8892 8.50929C22.7457 9.04475 22.8208 9.61528 23.098 10.0954C23.5186 10.8239 24.3091 11.1996 25.0947 11.1306C26.6181 15.423 27.1858 18.9443 23.4516 21.9224C23.4516 21.9224 27.7329 26.794 32.8848 23.8195C38.0368 20.845 35.4108 15.0907 35.4108 15.0907C31.3545 17.7177 27.968 12.6677 26.6331 10.2292Z" fill="#F19534"/>
<path d="M11.769 18.8104C10.9929 18.8673 10.2152 18.4907 9.80035 17.7721C9.52317 17.2921 9.44806 16.7215 9.59154 16.1861C9.73502 15.6506 10.0853 15.1941 10.5654 14.9169C11.0455 14.6397 11.616 14.5646 12.1515 14.7081C12.6869 14.8516 13.1435 15.2019 13.4207 15.682C13.8413 16.4105 13.7714 17.283 13.3188 17.9288C16.2744 21.3943 19.0401 23.6466 23.4864 21.9017C23.4864 21.9017 25.5647 28.0452 20.4127 31.0197C15.2607 33.9942 11.5943 28.8439 11.5943 28.8439C15.8936 26.6435 13.2133 21.1857 11.769 18.8104Z" fill="#F19534"/>
<path d="M32.8152 23.8597C32.8376 23.8467 32.8614 23.8363 32.8838 23.8234C34.3036 23.0037 35.1305 21.9726 35.5852 20.9111L32.8152 23.8597Z" fill="#FFCA28"/>
<path d="M32.0691 5.44967C31.1765 5.81582 30.8409 7.06054 31.3197 8.22293C31.6192 8.94845 32.1639 9.47273 32.7485 9.67561L33.5801 12.4942C33.5801 12.4942 36.0426 18.8667 32.0988 22.682C28.9464 25.732 23.7165 19.7571 22.1903 17.86C22.6905 17.1071 22.759 16.1061 22.2752 15.2682C21.5962 14.0921 20.0941 13.6896 18.918 14.3686C17.7419 15.0476 17.3394 16.5497 18.0184 17.7258C18.5051 18.5688 19.418 19.0131 20.3297 18.9442C21.2608 21.1484 23.8975 28.3221 19.5258 29.9377C15.0872 31.5754 9.39802 25.7927 7.92218 24.1782C8.17735 23.5004 8.04355 22.6427 7.50911 21.9468C6.74042 20.9484 5.43718 20.6665 4.59748 21.3137C3.75777 21.961 3.70138 23.2931 4.46863 24.289C5.0267 25.0144 5.8694 25.36 6.61 25.2474L21.1181 43.072C21.1181 43.072 25.137 43.6591 33.1559 39.0294C41.1748 34.3997 42.6758 30.6256 42.6758 30.6256L34.4706 9.09245C34.8278 8.52818 34.8818 7.69141 34.5534 6.89301C34.0757 5.7267 32.9642 5.08208 32.0691 5.44967Z" fill="#FFCA28"/>
<path d="M30.3656 33.9662C31.7031 33.1939 32.0412 31.2755 31.1207 29.6811C30.2002 28.0868 28.3697 27.4204 27.0322 28.1926C25.6946 28.9648 25.3566 30.8833 26.277 32.4776C27.1975 34.0719 29.028 34.7384 30.3656 33.9662Z" fill="#1B3A4B"/>
<path d="M27.4442 28.9068C27.599 28.9567 27.7941 29.0993 27.8304 29.5757C27.8667 30.052 27.1933 31.1138 27.0757 31.3176C26.9594 31.524 26.8153 31.5442 26.7362 31.5335C26.3545 31.4754 26.1812 30.9455 26.1838 30.5595C26.1865 29.7258 26.583 28.6382 27.4442 28.9068Z" fill="#006466"/>
<path d="M29.1415 32.2597C28.944 32.5494 28.2776 33.4679 28.8476 33.772C29.1839 33.9525 29.6134 33.8637 29.9527 33.6877C30.292 33.5117 30.5574 33.2192 30.7632 32.8981C31.7394 31.3731 30.7574 29.4138 30.4031 29.4261C30.0384 29.4377 30.072 29.9322 30.0225 30.1795C29.8675 30.9238 29.5682 31.6305 29.1415 32.2597Z" fill="#144552"/>
<path d="M40.675 21.0155C39.824 18.6457 38.0718 18.9413 38.0718 18.9413C38.0718 18.9413 37.0442 19.3091 38.0005 21.9761C38.9554 24.6407 39.983 24.2728 39.983 24.2728C39.983 24.2728 41.5235 23.3867 40.675 21.0155Z" fill="#1B3A4B"/>
<path d="M38.908 19.4363C39.5075 19.6936 39.4933 20.5936 39.1013 21.4134C38.9859 21.6557 38.7036 21.7524 38.6031 21.6645C38.3178 21.4115 38.1573 21.0301 38.1228 20.6489C38.0145 19.508 38.6044 19.3066 38.908 19.4363Z" fill="#006466"/>
<path d="M13.7764 36.6322C12.1485 34.7142 13.2817 33.3406 13.2817 33.3406C13.2817 33.3406 14.114 32.6346 15.9455 34.7963C17.7757 36.9555 16.9433 37.6615 16.9433 37.6615C16.9433 37.6615 15.4032 38.554 13.7764 36.6322Z" fill="#1B3A4B"/>
<path d="M14.1449 33.813C14.6216 33.8692 14.6729 34.2739 14.5524 34.6452C14.4172 35.0713 14.3635 35.4836 14.2907 35.9202C14.2792 35.9865 14.2656 36.0606 14.2131 36.1075C14.1131 36.1984 13.9537 36.1347 13.8518 36.0443C13.564 35.7927 13.3714 35.4133 13.364 35.0329C13.3414 33.9486 13.9596 33.7906 14.1449 33.813Z" fill="#006466"/>
<path d="M37.3746 25.6933C37.7672 26.7695 37.3759 27.9005 36.4973 28.2221C35.6188 28.5437 35.0285 27.7739 34.6358 26.6976C34.2432 25.6214 34.1965 24.6504 35.0726 24.3303C35.9511 24.0087 36.9834 24.6195 37.3746 25.6933Z" fill="#4D194D"/>
<path d="M20.0787 35.6791C20.8144 36.5573 21.9896 36.7839 22.7074 36.1838C23.4251 35.5838 23.0536 34.6876 22.3179 33.8095C21.5821 32.9314 20.7646 32.4054 20.0493 33.0041C19.334 33.6027 19.3469 34.8021 20.0787 35.6791Z" fill="#4D194D"/>
<path d="M20.8588 34.3598C20.795 34.6684 20.5893 35.3342 20.2518 35.1114C19.791 34.8072 19.7137 33.9899 19.9284 33.5808C20.1431 33.1717 20.5167 33.1814 20.6745 33.3456C20.8723 33.5563 20.9142 34.0824 20.8588 34.3598Z" fill="#FFA8A4" fill-opacity="0.1"/>
<path d="M35.3672 26.8153C35.0995 26.9201 34.5826 26.088 34.8593 25.0398C34.9913 24.5392 35.662 24.6559 35.842 25.2316C36.0125 25.7796 35.8574 26.6251 35.3672 26.8153Z" fill="#FFA8A4" fill-opacity="0.1"/>
<path d="M41.2386 27.1254C40.1798 28.7312 37.9104 32.6904 31.6022 36.3324C25.2941 39.9744 20.7306 39.9602 18.8106 40.0742C18.8106 40.0742 18.4411 40.6688 18.6133 40.9671L19.9355 43.2572C20.1121 43.563 20.4359 43.7507 20.7899 43.7552C22.3498 43.7696 26.8315 43.3436 33.448 39.5236C40.0645 35.7036 42.6742 32.0353 43.4417 30.6771C43.527 30.5262 43.5715 30.3556 43.5708 30.1821C43.5701 30.0087 43.5242 29.8385 43.4376 29.6882L42.1155 27.3982C41.9382 27.1027 41.2386 27.1254 41.2386 27.1254Z" fill="#FFCA28"/>
<path d="M25.7583 40.2505C26.5334 39.9853 26.7792 39.923 26.9559 40.3382C27.2997 41.1575 25.611 41.8904 24.5315 42.1855C22.3002 42.7941 21.5973 42.4838 21.3202 42.0039C21.0661 41.5638 21.3741 41.3164 22.0025 41.1989C22.7544 41.0599 23.9345 40.8758 25.7583 40.2505Z" fill="#FFF59D"/>
<path d="M41.5286 27.6274C41.5286 27.6274 38.7551 32.3384 31.6611 36.4341C24.5672 40.5298 19.1006 40.5762 19.1006 40.5762" stroke="#F19534" stroke-width="4" stroke-miterlimit="10" stroke-linecap="round"/>
<path d="M13.8221 26.8285C14.5994 25.1199 14.3329 23.016 12.8389 20.2848C12.7032 20.0383 12.7312 19.926 12.8544 19.835C13.0528 19.6906 13.1982 19.8619 13.2746 20.0001C14.8946 22.9437 15.5735 24.9752 14.6979 26.8467C14.6545 26.938 14.3207 27.5485 13.977 27.4585C13.5695 27.3556 13.772 26.937 13.8221 26.8285Z" fill="#FFCA28"/>
<path d="M10.1478 17.668C9.84568 17.2423 9.48212 16.3714 10.4507 15.3215C10.7346 15.0151 11.0461 15.0607 11.1619 15.1695C11.4509 15.4403 11.2371 15.7361 11.1297 15.8545C10.3916 16.6719 10.6081 17.1503 10.5881 17.5463C10.5682 17.9424 10.2417 17.7961 10.1478 17.668Z" fill="#FFCA28"/>
<path d="M26.2207 18.8748C26.8038 17.1226 26.9122 15.4786 25.8753 12.4768C25.7847 12.2108 25.817 12.106 25.9492 12.0363C26.1634 11.9192 26.2868 12.1099 26.3419 12.2571C27.5617 15.392 27.6152 16.4551 27.0839 18.94C27.0236 19.2202 26.7145 19.6208 26.3752 19.5614C26.0697 19.509 26.1491 19.0952 26.2207 18.8748Z" fill="#FFCA28"/>
<path d="M23.4534 10.0156C23.1513 9.58998 22.7878 8.71909 23.7564 7.6692C24.0403 7.36274 24.3517 7.40836 24.4676 7.51717C24.7565 7.78797 24.5427 8.08379 24.4354 8.20214C23.6972 9.01953 23.9137 9.49791 23.8938 9.89401C23.8763 10.2887 23.5473 10.1438 23.4534 10.0156Z" fill="#FFCA28"/>
<path d="M18.1363 31.648C14.4905 32.0058 11.6662 29.0778 10.3566 27.8547C10.1835 27.6927 10.1057 27.489 10.2677 27.3159C10.4297 27.1428 10.6197 27.2021 10.7953 27.3627C11.7451 28.2498 15.0965 31.1088 18.3197 30.6105C18.5542 30.5746 18.9574 30.5838 18.9752 30.9879C18.9846 31.2511 18.7233 31.5909 18.1363 31.648Z" fill="#FFF59D"/>
<path d="M6.68866 22.6791C6.38289 22.471 6.16779 22.2306 5.2271 22.3526C4.9897 22.3836 4.76096 22.2803 4.69833 22.0512C4.63571 21.8221 4.74849 21.5581 5.06563 21.4413C6.09634 21.0617 6.85006 21.8963 7.08077 22.2041C7.30182 22.5008 6.99691 22.8857 6.68866 22.6791Z" fill="#FFF59D"/>
<path d="M34.368 22.2772C36.5007 19.2987 35.3772 15.3889 34.9727 13.6432C34.9189 13.4123 34.7814 13.243 34.5506 13.2968C34.3197 13.3505 34.276 13.5448 34.3273 13.7771C34.6207 15.0432 35.4209 19.3751 33.3778 21.9173C33.2294 22.1025 33.0358 22.4562 33.3769 22.6737C33.6001 22.8134 34.025 22.757 34.368 22.2772Z" fill="#FFF59D"/>
<path d="M32.3242 7.87814C32.2969 7.50932 32.1962 7.20279 32.7722 6.44916C32.9178 6.25905 32.9427 6.0093 32.7756 5.84053C32.6085 5.67176 32.3235 5.63742 32.0638 5.85367C31.2197 6.5565 31.5656 7.62654 31.7167 7.98021C31.8632 8.32001 32.3515 8.24696 32.3242 7.87814Z" fill="#FFF59D"/>
<path d="M19.0068 17.1978C18.979 16.7995 18.9996 16.2207 19.764 15.5406C20.057 15.2786 20.0707 15.0784 19.9145 14.8769C19.5921 14.4563 19.0439 14.8159 18.7797 15.0646C17.898 15.8919 18.1943 16.9276 18.3588 17.3101C18.5132 17.6751 19.037 17.5948 19.0068 17.1978Z" fill="#FFF59D"/>
</g>
<defs>
<clipPath id="clip0_707_6071">
<rect width="36.7505" height="36.7505" fill="white" transform="translate(0 18.375) rotate(-30)"/>
</clipPath>
</defs>
</svg>
