<?xml version="1.0" encoding="UTF-8"?>
<svg width="116px" height="103px" viewBox="0 0 116 103" version="1.1" xmlns="http://www.w3.org/2000/svg" xmlns:xlink="http://www.w3.org/1999/xlink">
    <title>Group 186</title>
    <defs>
        <polygon id="path-1" points="0 0 103.524887 0 103.524887 102.946521 0 102.946521"></polygon>
    </defs>
    <g id="Mobile-Application" stroke="none" stroke-width="1" fill="none" fill-rule="evenodd">
        <g id="In-progress-Empty-Mobile" transform="translate(-148, -601)">
            <g id="Group-186" transform="translate(149, 601)">
                <g id="Group-3" transform="translate(7.2683, 0)">
                    <mask id="mask-2" fill="white">
                        <use xlink:href="#path-1"></use>
                    </mask>
                    <g id="Clip-2"></g>
                </g>
                <path d="M75.2599204,80.7870545 C75.2599204,80.9833732 75.0999959,81.142475 74.9026621,81.142475 L40.5681447,81.142475 C38.0218221,81.142475 35.9571434,79.4444581 35.9571434,77.3500822 L35.9571434,76.1132436 C35.9571434,74.0188677 38.0218221,72.3208507 40.5681447,72.3208507 L74.9026621,72.3208507 C75.0999959,72.3208507 75.2599204,72.4799526 75.2599204,72.6762713 L75.2599204,72.7404703 C75.2599204,72.9358585 75.1015546,73.0943401 74.9054678,73.0958908 L74.4568686,73.0989922 L74.4316174,80.4319441 L74.9026621,80.431634 C75.0999959,80.431634 75.2599204,80.5907358 75.2599204,80.7870545" id="Fill-4" fill-opacity="0.16" fill="#1B4CA1"></path>
                <path d="M51.4348759,73.0686605 L74.4568374,73.0990542 L74.4315862,80.431696 L51.1967037,80.431696 C50.0014783,80.431696 49.0328906,79.4680908 49.0328906,78.2793239 L49.0328906,75.4582898 C49.0328906,74.1386438 50.1084064,73.0686605 51.4348759,73.0686605" id="Fill-6" fill="#E1ECFA"></path>
                <path d="M43.1841421,76.9605463 L43.1841421,76.5027795 C43.1841421,76.2053552 43.426367,75.9643763 43.7253292,75.9643763 L46.8206325,75.9643763 C47.1195947,75.9643763 47.3618196,76.2053552 47.3618196,76.5027795 L47.3618196,76.9605463 C47.3618196,77.2579706 47.1195947,77.4989494 46.8206325,77.4989494 L43.7253292,77.4989494 C43.426367,77.4989494 43.1841421,77.2579706 43.1841421,76.9605463" id="Fill-8" fill="#E1ECFA"></path>
                <path d="M76.387248,89.6725056 C76.387248,89.8688243 76.2273235,90.0279262 76.0299897,90.0279262 L41.6954723,90.0279262 C39.1491497,90.0279262 37.0844711,88.3299092 37.0844711,86.2355333 L37.0844711,84.9986947 C37.0844711,82.9043188 39.1491497,81.2063019 41.6954723,81.2063019 L76.0299897,81.2063019 C76.2273235,81.2063019 76.387248,81.3654037 76.387248,81.5617224 L76.387248,81.6259214 C76.387248,81.8213096 76.2288822,81.9797912 76.0327954,81.9813419 L75.5841962,81.9844433 L75.558945,89.3173952 L76.0299897,89.3170851 C76.2273235,89.3170851 76.387248,89.476187 76.387248,89.6725056" id="Fill-10" fill-opacity="0.16" fill="#1B4CA1"></path>
                <path d="M52.5622035,81.9541116 L75.5841651,81.9845053 L75.5589138,89.3171471 L52.3237196,89.3171471 C51.1288059,89.3171471 50.1602182,88.3535419 50.1602182,87.164775 L50.1602182,84.3437409 C50.1602182,83.0240949 51.2354223,81.9541116 52.5622035,81.9541116" id="Fill-12" fill="#E1ECFA"></path>
                <path d="M44.3114697,85.8459974 L44.3114697,85.3882306 C44.3114697,85.0908063 44.5536946,84.8498275 44.8526568,84.8498275 L47.9479601,84.8498275 C48.2469224,84.8498275 48.4891472,85.0908063 48.4891472,85.3882306 L48.4891472,85.8459974 C48.4891472,86.1434217 48.2469224,86.3844006 47.9479601,86.3844006 L44.8526568,86.3844006 C44.5536946,86.3844006 44.3114697,86.1434217 44.3114697,85.8459974" id="Fill-14" fill="#E1ECFA"></path>
                <line x1="51.4464416" y1="83.097505" x2="75.5588826" y2="83.097505" id="Fill-16" fill="#E1ECFA"></line>
                <line x1="53.1853792" y1="84.2031854" x2="75.5589138" y2="84.2031854" id="Fill-18" fill="#E1ECFA"></line>
                <line x1="51.4464416" y1="86.2047984" x2="75.5588826" y2="86.2047984" id="Fill-20" fill="#E1ECFA"></line>
                <line x1="51.0684212" y1="88.282799" x2="75.5586956" y2="88.282799" id="Fill-22" fill="#E1ECFA"></line>
                <path d="M88.5007982,102.215222 C88.5007982,102.501791 88.2673022,102.734396 87.9789393,102.734396 L37.8118938,102.734396 C34.0909209,102.734396 31.0748004,100.253586 31.0748004,97.1931233 L31.0748004,95.3862472 C31.0748004,92.3260951 34.0909209,89.8449745 37.8118938,89.8449745 L87.9789393,89.8449745 C88.2673022,89.8449745 88.5007982,90.0775796 88.5007982,90.364149 L88.5007982,90.4581215 C88.5007982,90.7434503 88.2694844,90.9754351 87.9826802,90.9772959 L87.3273949,90.9822582 L87.2902974,101.696047 L87.9789393,101.696047 C88.2669904,101.696047 88.5007982,101.928342 88.5007982,102.215222" id="Fill-24" fill="#D5DDEB"></path>
                <path d="M53.4622076,90.9376911 L87.327239,90.9820411 L87.2904533,101.69614 L53.6330432,101.69614 C51.7257952,101.69614 50.1798581,100.158155 50.1798581,98.2607185 L50.1798581,94.2031559 C50.1798581,92.3996914 51.6494179,90.9376911 53.4622076,90.9376911" id="Fill-26" fill="#E1ECFA"></path>
                <path d="M45.0222765,99.7382878 L44.3498454,99.7382878 C43.9130924,99.7382878 43.5592633,99.3859687 43.5592633,98.9514625 L43.5592633,94.4522604 C43.5592633,94.0177542 43.9130924,93.665435 44.3498454,93.665435 L45.0222765,93.665435 C45.4590295,93.665435 45.8131704,94.0177542 45.8131704,94.4522604 L45.8131704,98.9514625 C45.8131704,99.3859687 45.4590295,99.7382878 45.0222765,99.7382878" id="Fill-28" fill="#E1ECFA"></path>
                <path d="M41.5686238,99.7654561 L40.8961926,99.7654561 C40.4594397,99.7654561 40.1056106,99.413137 40.1056106,98.9786307 L40.1056106,94.4794287 C40.1056106,94.0449224 40.4594397,93.6929134 40.8961926,93.6929134 L41.5686238,93.6929134 C42.0053768,93.6929134 42.3595176,94.0449224 42.3595176,94.4794287 L42.3595176,98.9786307 C42.3595176,99.413137 42.0053768,99.7654561 41.5686238,99.7654561" id="Fill-30" fill="#E1ECFA"></path>
                <line x1="53.9575061" y1="92.6083226" x2="87.2903909" y2="92.6083226" id="Fill-32" fill="#E1ECFA"></line>
                <line x1="58.5092448" y1="96.2111888" x2="87.3106231" y2="96.2111888" id="Fill-34" fill="#E1ECFA"></line>
                <line x1="51.2735174" y1="97.5606393" x2="87.2905156" y2="97.5606393" id="Fill-36" fill="#E1ECFA"></line>
                <line x1="52.756077" y1="100.59688" x2="87.2904221" y2="100.59688" id="Fill-38" fill="#E1ECFA"></line>
                <path d="M91.9281086,102.503838 L56.7525067,91.3701194 C54.687828,90.7166542 53.5468461,88.5217929 54.2036901,86.4677352 L69.6449797,38.1835776 C70.3018237,36.1298301 72.508034,34.9944072 74.5727126,35.6478724 L85.5276984,39.1155486 L92.0269314,42.4846002 L96.0795997,42.455447 L109.748315,46.7815909 C111.812681,47.4353662 112.953975,49.6299174 112.297131,51.6839751 L96.8558415,99.9681327 C96.1989975,102.02188 93.9927872,103.157303 91.9281086,102.503838" id="Fill-40" fill="#D5DDEB"></path>
                <path d="M91.8862103,98.9643643 L58.8426236,88.5052004 C57.6212117,88.1187659 56.9459748,86.8202094 57.3347192,85.6050806 L71.5810952,41.0578008 C71.9695279,39.842672 73.2747988,39.1712187 74.4962107,39.5576532 L107.539797,50.0168171 C108.761209,50.4032517 109.436446,51.7018081 109.047702,52.916937 L94.8013257,97.4642168 C94.4125813,98.6793456 93.1076221,99.3507988 91.8862103,98.9643643" id="Fill-42" fill="#FFFFFF"></path>
                <path d="M93.0964929,38.2879708 C94.093761,38.6036934 94.6452357,39.6640623 94.3278806,40.6562004 C94.0105255,41.6483385 92.9446737,42.1969763 91.9474056,41.8812537 C90.9501374,41.5655311 90.3986628,40.5051622 90.7160179,39.5130241 C91.033373,38.520886 92.0992247,37.9722482 93.0964929,38.2879708 M99.6178596,42.3306467 L96.4820296,41.3378883 C97.1778416,39.1622557 95.9688995,36.8371355 93.7817056,36.1449029 C91.5948234,35.4526702 89.2576808,36.6553934 88.5618688,38.8310261 L85.4774765,37.8547051 C84.6946881,37.6069032 83.8582797,38.0373776 83.6091964,38.8161393 L83.0667624,40.5116751 C82.5184052,42.2270599 83.4714057,44.0596776 85.1953485,44.605214 L95.8759998,47.9860509 C97.5999426,48.5315873 99.4420362,47.5837992 99.9907051,45.8684145 L100.54935,44.1220157 C100.789081,43.3714767 100.372279,42.5694545 99.6178596,42.3306467" id="Fill-44" fill="#D5DDEB"></path>
                <path d="M102.736388,56.9129678 L74.4110423,47.9474385 C73.991747,47.8146985 73.7598097,47.3687171 73.893236,46.9512686 C74.0266623,46.53382 74.4749498,46.3030758 74.8945568,46.4358158 L103.219902,55.401345 C103.639509,55.534085 103.871135,55.9803766 103.737709,56.397515 C103.604282,56.8149635 103.155995,57.0457077 102.736388,56.9129678" id="Fill-46" fill="#E1ECFA"></path>
                <path d="M101.568908,60.5635956 L73.2435621,51.5980663 C72.8242668,51.4653263 72.5923295,51.0193449 72.7257558,50.6018964 C72.8591821,50.1844478 73.3074695,49.9537036 73.7270766,50.0864436 L102.052422,59.0519729 C102.472029,59.1847128 102.703655,59.6310044 102.570228,60.0481428 C102.436802,60.4655913 101.988515,60.6963355 101.568908,60.5635956" id="Fill-48" fill="#E1ECFA"></path>
                <path d="M100.401427,64.2141924 L72.0760819,55.2486631 C71.6567866,55.1159231 71.4248493,54.6699417 71.5582756,54.2524932 C71.6917019,53.8350446 72.1399893,53.6043004 72.5595964,53.7370404 L100.884942,62.7025696 C101.304237,62.8356197 101.536175,63.2816012 101.402748,63.6990497 C101.269322,64.1161881 100.821034,64.3469323 100.401427,64.2141924" id="Fill-50" fill="#E1ECFA"></path>
                <path d="M99.2339472,67.8647892 L70.9086017,58.8992599 C70.4889946,58.7665199 70.257369,58.3205385 70.3907954,57.90309 C70.5242217,57.4856414 70.9725091,57.2548972 71.3921162,57.3876372 L99.7174617,66.3531664 C100.136757,66.4862165 100.368694,66.932198 100.235268,67.3496465 C100.101842,67.7667849 99.6535543,67.9975291 99.2339472,67.8647892" id="Fill-52" fill="#E1ECFA"></path>
                <path d="M98.066467,71.515417 L69.7411215,62.5498877 C69.3215144,62.4171477 69.0898888,61.9711663 69.2233151,61.5537178 C69.3567415,61.1362692 69.8050289,60.905525 70.224636,61.038265 L98.5499815,70.0037942 C98.9692768,70.1365342 99.2012142,70.5828258 99.0677879,70.9999642 C98.9343615,71.4174127 98.4860741,71.6481569 98.066467,71.515417" id="Fill-54" fill="#E1ECFA"></path>
                <path d="M96.8989868,75.1660138 L68.5736412,66.2004845 C68.154346,66.0677445 67.9224086,65.6217631 68.0558349,65.2043146 L68.0558349,65.2043146 C68.1892612,64.786866 68.6375487,64.5561218 69.0571557,64.6888618 L97.3825013,73.654391 C97.8021084,73.7874411 98.033734,74.2334226 97.9003076,74.6508711 C97.7668813,75.0680095 97.3185939,75.2987537 96.8989868,75.1660138" id="Fill-56" fill="#E1ECFA"></path>
                <path d="M95.7315378,78.8166416 L67.4061922,69.8511123 C66.9865852,69.7183723 66.7546479,69.2720808 66.8883859,68.8549424 C67.0218122,68.4374938 67.4700997,68.2067496 67.8897067,68.3394896 L96.2150523,77.3050188 C96.6343476,77.4377588 96.8662849,77.8840504 96.7328586,78.3011888 C96.5994323,78.7186373 96.1511448,78.9493815 95.7315378,78.8166416" id="Fill-58" fill="#E1ECFA"></path>
                <path d="M94.5640576,82.4672384 L66.238712,73.5017091 C65.819105,73.3689691 65.5874794,72.9229877 65.7209057,72.5055392 C65.854332,72.0880906 66.3026195,71.8573464 66.7222265,71.9900864 L95.0475721,80.9556156 C95.4668674,81.0886657 95.6988047,81.5346472 95.5653784,81.9517856 C95.4319521,82.3692341 94.9836646,82.5999783 94.5640576,82.4672384" id="Fill-60" fill="#E1ECFA"></path>
                <path d="M93.4173707,86.0527988 L65.0920251,77.0872695 C64.6727298,76.9545296 64.4407925,76.5085481 64.5742188,76.0910996 C64.7076451,75.673651 65.1559326,75.4429068 65.5755396,75.5756468 L93.9008852,84.5411761 C94.3201805,84.6742262 94.5521178,85.1202076 94.4186915,85.5376561 C94.2852652,85.9547945 93.8369777,86.1855387 93.4173707,86.0527988" id="Fill-62" fill="#E1ECFA"></path>
                <path d="M92.2498905,89.7034266 L63.9245449,80.7378973 C63.5049379,80.6051574 63.2733123,80.1591759 63.4067386,79.7417274 C63.5401649,79.3242788 63.9884524,79.0935346 64.4080594,79.2262746 L92.733405,88.1918039 C93.1527003,88.3245438 93.3846376,88.7708354 93.2512113,89.1879738 C93.117785,89.6054223 92.6694975,89.8361665 92.2498905,89.7034266" id="Fill-64" fill="#E1ECFA"></path>
                <path d="M91.0824103,93.3540234 L62.7570647,84.3884941 C62.3374576,84.2557542 62.1058321,83.8097727 62.2392584,83.3923242 C62.3726847,82.9748756 62.8209721,82.7441314 63.2405792,82.8768714 L91.5659248,91.8424007 C91.9852201,91.9754508 92.2171574,92.4214322 92.0837311,92.8385706 L92.0837311,92.8388807 C91.9503048,93.2560191 91.5020173,93.4867633 91.0824103,93.3540234" id="Fill-66" fill="#E1ECFA"></path>
                <path d="M18.9720054,99.3324696 C18.968888,99.3309189 18.9654588,99.329058 18.9626531,99.3265769 C18.9448837,99.3132409 17.2056655,97.9756067 17.8054604,95.4386609 C18.2144682,93.7068387 18.0751187,93.167195 17.8824611,92.4200676 C17.7973551,92.0900785 17.7007145,91.7160496 17.6411715,91.1844695 C17.4491374,89.4715659 18.8392026,87.7431552 18.8984339,87.6702723 C18.9205677,87.6432901 18.9607826,87.638638 18.9882161,87.6603478 C19.0156495,87.6820576 19.0200139,87.7217556 18.9978801,87.7487378 C18.9838517,87.7661056 17.5819402,89.5097131 17.7680512,91.1705132 C17.8263473,91.6930992 17.9220526,92.0627862 18.0062234,92.3887434 C18.1957636,93.1243957 18.346024,93.705288 17.9295344,95.4668837 C17.3493794,97.9222626 19.0231314,99.213996 19.0399655,99.2267118 C19.0680225,99.2474912 19.0733221,99.2871891 19.0521235,99.3144814 C19.0327954,99.3393874 18.9991271,99.3461157 18.9720054,99.3324696" id="Fill-78" fill="#E1ECFA"></path>
                <path d="M23.0845285,57.8159406 L28.1559752,57.7582545 C29.0254284,42.2940501 41.2270774,29.3664814 57.1802502,27.9733322 C74.6812306,26.445272 90.16897,39.3669481 91.7049313,56.7775916 C93.2408926,74.1885453 80.2527142,89.5963042 62.7517339,91.1243644 C57.2245178,91.6072525 51.6545929,90.6467486 46.6439362,88.3476803 C45.3679692,87.7618257 44.8105714,86.2582666 45.3994553,84.9888633 C45.9880274,83.7188397 47.4996727,83.1649295 48.7756397,83.7504739 C52.9826211,85.6807858 57.6612708,86.4868398 62.3068756,86.0811766 C77.0124501,84.7971967 87.9262857,71.8503993 86.6356668,57.2201615 C85.3450478,42.5902339 72.3309947,31.73254 57.6254202,33.0165199 C44.3385914,34.1767539 34.1483129,44.8585984 33.2576611,57.6999482 L38.1030936,57.6447433 C38.8129341,57.6366796 39.2652742,58.3962127 38.91768,59.0115306 L35.2375454,65.524162 L31.5570991,72.0367935 C31.2091932,72.6524215 30.3219705,72.6626561 29.9600361,72.0550917 L26.1308881,65.6280589 L22.30174,59.2010262 C21.9398056,58.5934618 22.3746881,57.8240042 23.0845285,57.8159406" id="Fill-80" fill="#F0BB76"></path>
                <path d="M77.10058,93.0160948 C77.10058,93.1637214 76.9802469,93.2834355 76.8318569,93.2834355 L50.9957849,93.2834355 C49.0794963,93.2834355 47.5260774,92.0059685 47.5260774,90.4298367 L47.5260774,89.4991063 C47.5260774,87.9232846 49.0794963,86.6455075 50.9957849,86.6455075 L76.8318569,86.6455075 C76.9802469,86.6455075 77.10058,86.7652216 77.10058,86.9128482 L77.10058,86.9612301 C77.10058,87.1082365 76.9814939,87.2276404 76.8337274,87.2285708 L76.4961089,87.2310519 L76.4770926,92.748754 L76.8318569,92.748754 C76.9802469,92.748754 77.10058,92.8684681 77.10058,93.0160948" id="Fill-82" fill="#EF951E"></path>
                <path d="M59.1726978,87.2081636 L76.496296,87.231114 L76.4772796,92.748816 L58.9934452,92.748816 C58.0940646,92.748816 57.3652078,92.0237086 57.3652078,91.1289544 L57.3652078,89.0063558 C57.3652078,88.0132872 58.1744944,87.2081636 59.1726978,87.2081636" id="Fill-84" fill="#F9ECDC"></path>
                <path d="M52.9641971,90.0034561 L52.9641971,89.9256109 C52.9641971,89.6281866 53.2064219,89.3872078 53.5053841,89.3872078 L55.5666336,89.3872078 C55.8655958,89.3872078 56.1078207,89.6281866 56.1078207,89.9256109 L56.1078207,90.0034561 C56.1078207,90.3008804 55.8655958,90.5418593 55.5666336,90.5418593 L53.5053841,90.5418593 C53.2064219,90.5418593 52.9641971,90.3008804 52.9641971,90.0034561" id="Fill-86" fill="#F0C66C"></path>
                <line x1="58.3331096" y1="88.0685542" x2="76.4772173" y2="88.0685542" id="Stroke-88" stroke="#F0C66C" stroke-width="0.310608511" stroke-linecap="round"></line>
                <line x1="59.6416227" y1="88.900536" x2="76.477342" y2="88.900536" id="Stroke-90" stroke="#F0C66C" stroke-width="0.310608511" stroke-linecap="round"></line>
                <line x1="58.3331096" y1="90.4067312" x2="76.4772173" y2="90.4067312" id="Stroke-92" stroke="#F0C66C" stroke-width="0.310608511" stroke-linecap="round"></line>
                <line x1="58.0486747" y1="91.9703955" x2="76.4770926" y2="91.9703955" id="Stroke-94" stroke="#F0C66C" stroke-width="0.310608511" stroke-linecap="round"></line>
                <path d="M86.6849534,102.454247 C86.6849534,102.670104 86.50913,102.845023 86.2921564,102.845023 L48.5424866,102.845023 C45.7427163,102.845023 43.4729103,100.97798 43.4729103,98.6751897 L43.4729103,97.3155356 C43.4729103,95.0127456 45.7427163,93.1460124 48.5424866,93.1460124 L86.2921564,93.1460124 C86.50913,93.1460124 86.6849534,93.3209314 86.6849534,93.5367889 L86.6849534,93.6075009 C86.6849534,93.8221178 86.5110005,93.9964165 86.2952738,93.9979672 L85.8017835,94.0016889 L85.7740383,102.06378 L86.2921564,102.06347 C86.50913,102.06347 86.6849534,102.238389 86.6849534,102.454247" id="Fill-96" fill="#EF951E"></path>
                <path d="M60.3196029,93.9681318 L85.807769,94.0016269 L85.7800238,102.063718 L60.4480413,102.063718 C59.0127733,102.063718 57.849034,100.906275 57.849034,99.4787006 L57.849034,96.4253716 C57.849034,95.0681986 58.9551007,93.9681318 60.3196029,93.9681318" id="Fill-98" fill="#F9ECDC"></path>
                <path d="M53.7725173,100.590398 L53.6581074,100.590398 C53.2213544,100.590398 52.8672136,100.238079 52.8672136,99.8035723 L52.8672136,96.8076192 C52.8672136,96.373113 53.2213544,96.0207938 53.6581074,96.0207938 L53.7725173,96.0207938 C54.2092703,96.0207938 54.5630994,96.373113 54.5630994,96.8076192 L54.5630994,99.8035723 C54.5630994,100.238079 54.2092703,100.590398 53.7725173,100.590398" id="Fill-100" fill="#F0C66C"></path>
                <path d="M51.173697,100.610836 L51.0592871,100.610836 C50.6225341,100.610836 50.2683933,100.258517 50.2683933,99.8240106 L50.2683933,96.8280574 C50.2683933,96.3935512 50.6225341,96.0412321 51.0592871,96.0412321 L51.173697,96.0412321 C51.61045,96.0412321 51.9645908,96.3935512 51.9645908,96.8280574 L51.9645908,99.8240106 C51.9645908,100.258517 51.61045,100.610836 51.173697,100.610836" id="Fill-102" fill="#F0C66C"></path>
                <line x1="60.6918249" y1="95.2252535" x2="85.7741007" y2="95.2252535" id="Stroke-104" stroke="#F0C66C" stroke-width="0.310608511" stroke-linecap="round"></line>
                <line x1="64.1169219" y1="97.936343" x2="85.7893449" y2="97.936343" id="Stroke-106" stroke="#F0C66C" stroke-width="0.310608511" stroke-linecap="round"></line>
                <line x1="58.6721621" y1="98.9517726" x2="85.7742254" y2="98.9517726" id="Stroke-108" stroke="#F0C66C" stroke-width="0.310608511" stroke-linecap="round"></line>
                <line x1="59.787737" y1="101.236482" x2="85.7740695" y2="101.236482" id="Stroke-110" stroke="#F0C66C" stroke-width="0.310608511" stroke-linecap="round"></line>
                <polygon id="Fill-112" fill="#E1B39D" points="35.5733558 95.2293474 34.7459879 97.2706894 37.0566323 97.8577845 37.7861126 96.1839585"></polygon>
                <path d="M37.056757,97.8576605 C34.8449354,96.8500154 34.1170138,96.5287102 30.7071611,96.7026988 C30.238922,96.745188 30.1400993,97.3856273 30.5715526,97.5717113 L35.7165708,99.7910737 C36.4423102,100.15921 37.056757,97.8576605 37.056757,97.8576605" id="Fill-114" fill="#1B2133"></path>
                <polygon id="Fill-116" fill="#E1B39D" points="41.3211617 96.393148 40.9561098 98.571882 43.3203741 98.7647892 43.6592395 96.9718694"></polygon>
                <path d="M43.3203741,98.7646651 C40.9392756,98.2693714 40.1577341,98.1161622 36.8713319,99.0369681 C36.4239797,99.1814934 36.4704295,99.8278253 36.9324337,99.9143544 L42.4437508,100.94557 C43.2333976,101.14468 43.3203741,98.7646651 43.3203741,98.7646651" id="Fill-118" fill="#1B2133"></path>
                <path d="M60.3900882,75.2868133 C60.3900882,75.2868133 65.2754239,74.9971425 65.2754239,72.6493821 C65.2754239,70.3016218 63.0835539,70.6638654 63.7407096,67.7572326 C64.3489216,65.0676979 63.4124435,64.1208402 62.0710103,63.1054416 C59.9770278,61.5203157 61.5145478,60.3148012 60.2039772,58.3143977 C59.1908101,56.7683495 55.364156,55.2012117 53.4609607,57.9028418 C50.7818352,61.7057794 50.7057697,61.9132632 50.6742836,63.2788099 C50.6116231,66.0126947 53.2885664,65.063666 50.6272103,69.3097938 C47.966166,73.5559216 52.5509808,75.6102894 56.2666541,76.5096956 C59.9823274,77.4087917 60.3900882,75.2868133 60.3900882,75.2868133" id="Fill-120" fill="#1B4CA1"></path>
                <path d="M56.3093006,59.1879383 C56.0440067,59.0400014 55.7911826,58.8728359 55.5555043,59.0638822 C54.8911785,59.6016651 53.7664072,60.7789568 53.9188498,62.495272 C54.0734747,64.2360883 54.2698733,65.0678839 55.161772,65.1327032 C55.4513819,65.1534826 55.6795783,65.3832964 55.6652381,65.6717267 L55.6234645,66.8679369 C55.6234645,66.8679369 55.4931556,66.98548 55.4451471,67.0605339 L54.1049608,69.3968191 C53.985563,69.5841437 54.0002149,69.8263631 54.1417466,69.9978706 L55.5907314,71.7569851 C55.8257861,72.0423139 56.2778145,71.9954828 56.4489618,71.6676647 L58.9079962,66.9532255 C58.9712802,66.8316505 58.9248304,66.6939484 58.8843037,66.5630692 C58.7352902,66.0811116 57.9624775,65.0942458 59.1106296,62.3581901 C59.2019705,62.1407819 59.2343919,61.3325569 58.6264917,61.4950703 C58.4512917,61.5595794 58.4400689,61.8821251 58.1576291,61.6321522 C57.727111,61.2513002 57.7841601,60.0091892 56.3093006,59.1879383" id="Fill-122" fill="#F3D6C1"></path>
                <path d="M49.9934977,79.639009 L43.2102662,81.1382261 C42.352971,81.3277217 41.6306608,81.8989997 41.2522039,82.6873758 L35.1395332,95.4118028 C35.0260585,95.6481295 35.1557439,95.9288063 35.4101267,95.9970371 L37.652811,96.5977784 C37.8295697,96.6449197 38.0172394,96.5732774 38.1163739,96.419758 L46.2341802,83.8699399 C46.2959055,83.7744168 46.3941048,83.7080468 46.5060208,83.6857167 L54.3342172,82.1362569 C54.7444719,82.0553103 54.7977801,81.4930264 54.4099709,81.3370259 L50.2428927,79.6594782 C50.1637098,79.627844 50.0767333,79.6207107 49.9934977,79.639009" id="Fill-124" fill="#1B4CA1"></path>
                <path d="M52.2063793,70.9621891 L50.9696919,75.7830064 C50.9248009,75.9585457 50.8216137,76.1133056 50.6766529,76.2227851 L48.8364297,77.613143 C48.5209451,77.8516407 48.4267985,78.2830456 48.6147799,78.6304025 L48.7750162,78.9268964 C48.9813905,79.3077484 49.4546175,79.4569258 49.8436737,79.2633984 L52.3890611,77.9970964 C52.5608319,77.9118079 52.6964404,77.7682131 52.7709471,77.5920535 L55.0631987,72.1804193 L52.2063793,70.9621891 Z" id="Fill-126" fill="#ECCBB5"></path>
                <path d="M53.9831937,80.8228447 C53.9130514,80.7921408 53.835739,80.7856279 53.7612322,80.8029957 L47.7118454,82.209481 C46.30744,82.4517004 45.1359071,83.4112737 44.6283884,84.7365023 C43.470884,87.758197 41.3981,94.9695741 40.9491891,96.5441552 C40.8993101,96.7187641 40.9909627,96.9008163 41.1611748,96.9659457 C41.6780459,97.1638151 42.7457681,97.5685479 43.4097822,97.7943299 C43.5828,97.8529463 43.7707814,97.7716896 43.8459116,97.6054546 C44.520525,96.109649 47.6127109,89.2521418 48.194113,87.9635098 C48.2514738,87.8357321 48.4936987,87.2632135 48.7970253,87.2632135 C50.5932926,87.2632135 61.9691325,88.335988 61.8060905,83.9844126 C61.5806998,83.5865029 54.9355708,81.2378121 53.9831937,80.8228447" id="Fill-128" fill="#1B4CA1"></path>
                <path d="M55.6234645,66.8678749 C55.6234645,66.8678749 54.8737208,68.1503041 55.8971754,68.4545515 C57.2155396,68.8468787 58.4974298,67.7148675 58.7702055,66.744129 C58.7945215,66.6582202 58.821955,66.4619016 58.9114254,66.4566292 C59.4229968,66.4280963 60.9433709,66.4361599 61.634195,67.6733087 C62.2932212,68.8530815 62.2872981,70.8258825 62.2604881,71.5435467 C62.2548767,71.6979964 62.1336084,71.8229829 61.9783601,71.8344581 L59.6000673,72.0072061 C59.3450609,72.0258145 59.2247278,72.3275808 59.3986808,72.5142851 C59.7818139,72.925841 60.2933853,73.627688 60.5979589,74.6632457 C60.9539702,75.8752731 61.1372755,76.5079589 61.4826876,78.8268762 C61.6834505,80.1750551 61.8418163,82.8332657 61.8979302,83.8607598 C61.909153,84.0676232 61.7133779,84.2230034 61.5129267,84.166868 C60.4286821,83.8616902 57.4518413,83.004463 55.9666943,82.3807713 C54.1299003,81.6091428 51.0632774,80.4746504 51.0632774,80.4746504 C51.0632774,80.4746504 53.8820641,79.2046268 53.5746848,76.6872198 C53.2676172,74.1698128 52.8595447,73.2766094 53.2267788,71.6117775 L52.0683391,71.2827189 C51.914026,71.238679 51.8198794,71.0848495 51.8541712,70.9285389 C52.0886025,69.8594861 52.5942508,66.9271117 55.6234645,66.8678749" id="Fill-130" fill="#F3D1A5"></path>
                <path d="M49.2976545,79.3142303 C49.2976545,79.3142303 50.4227376,78.3897027 51.4564798,78.7507058 C51.5914648,78.7978471 51.7364256,78.8046702 51.8760868,78.7742764 C52.7969777,78.573926 56.1048903,77.8540908 57.3973797,77.5724836 C57.7144231,77.5036326 57.9575832,77.2517988 58.014944,76.9342154 L58.8940613,72.0585033 L61.7998244,71.8472979 C61.7998244,71.8472979 61.1925477,78.0262186 59.3264498,79.6467005 C59.1983231,79.7580408 59.034346,79.8178978 58.8641339,79.8284426 C57.6767021,79.9003951 52.4525009,80.2167379 51.8006448,80.2564359 C51.7507658,80.2595373 51.7036925,80.2669806 51.6553722,80.2790761 C51.532857,80.3100901 51.2868912,80.3777006 51.0633709,80.4744643 C50.7491333,80.6106158 50.3822109,80.524707 50.1540145,80.270082 L49.2976545,79.3142303 Z" id="Fill-132" fill="#F3D6C1"></path>
                <path d="M41.5049969,82.9244159 C41.5049969,82.9244159 42.6278978,83.2184286 43.533825,82.5717866 C44.440064,81.9248344 43.9867886,80.9844897 43.9867886,80.9844897" id="Stroke-134" stroke="#FFFFFF" stroke-width="0.155304255" stroke-linecap="round"></path>
                <path d="M43.4603782,88.1579676 L44.5720563,84.7023869 C44.9442783,83.5455644 45.8972788,82.6663173 47.0847106,82.3837797 L52.2861545,81.1457005" id="Stroke-136" stroke="#FFFFFF" stroke-width="0.155304255" stroke-linecap="round"></path>
                <path d="M58.6319472,83.6771258 C58.6319472,83.6771258 57.6783231,84.8047951 58.377876,86.2547" id="Stroke-138" stroke="#FFFFFF" stroke-width="0.155304255" stroke-linecap="round"></path>
                <path d="M46.5160277,82.991065 C46.5160277,82.991065 47.3670881,84.6310857 44.8856081,84.966037" id="Stroke-140" stroke="#FFFFFF" stroke-width="0.155304255" stroke-linecap="round"></path>
                <line x1="35.8663325" y1="95.17988" x2="37.8197186" y2="95.7936472" id="Stroke-142" stroke="#FFFFFF" stroke-width="0.155304255" stroke-linecap="round"></line>
                <line x1="41.7774609" y1="96.3560242" x2="43.4602535" y2="96.9186183" id="Stroke-144" stroke="#FFFFFF" stroke-width="0.155304255" stroke-linecap="round"></line>
                <path d="M60.4354157,67.1856444 C60.4354157,67.1856444 58.3632553,67.4080149 58.8941548,72.0585653" id="Stroke-146" stroke="#E69724" stroke-width="0.155304255" stroke-linecap="round"></path>
                <path d="M54.4377784,68.4546446 C54.4377784,68.4546446 53.255958,69.8943148 53.207326,71.517588" id="Stroke-148" stroke="#E69724" stroke-width="0.155304255" stroke-linecap="round"></path>
                <path d="M43.4586948,81.0177057 L40.124284,76.1602918 C39.9902342,75.9652137 40.1308306,75.7006642 40.3680676,75.7006642 L47.3879125,75.7006642 C47.489541,75.7006642 47.5843111,75.7527678 47.6382427,75.8386766 L50.4286607,80.2798824 C50.4825924,80.3657912 50.5773625,80.4178948 50.6789909,80.4178948 L53.9532352,80.4178948 C54.1165889,80.4178948 54.2487682,80.5493942 54.2487682,80.7119076 L54.2487682,80.8520909 C54.2487682,81.0142941 54.1165889,81.1457935 53.9532352,81.1457935 L43.7027901,81.1457935 C43.6049026,81.1457935 43.5138734,81.0977218 43.4586948,81.0177057" id="Fill-150" fill="#EF951E"></path>
                <path d="M46.1059289,78.0800899 C46.3338135,78.5505724 46.1975815,79.085564 45.8019788,79.2750596 C45.406376,79.4648653 44.9013512,79.2369124 44.6734665,78.7664299 C44.4455819,78.2959474 44.5818139,77.7606456 44.9774166,77.57115 C45.3730194,77.3816545 45.8780442,77.6096074 46.1059289,78.0800899" id="Fill-152" fill="#F0C66C"></path>
                <path d="M22.3099389,42.9153615 C22.1085524,54.6492011 4.56423971,54.6473403 4.36441199,42.9150514 C4.56579843,31.1812118 22.1101112,31.1830726 22.3099389,42.9153615" id="Fill-154" fill-opacity="0.4" fill="#EF951E"></path>
                <g id="Icons/content/edit-24px" transform="translate(8.8016, 37.8296)">
                    <rect id="Size" fill="#D8D8D8" opacity="0" x="0" y="0" width="9.93947234" height="9.93947234"></rect>
                    <path d="M1.61516425,2.73335489 C1.41016264,2.73335489 1.24243404,2.90108349 1.24243404,3.10608511 L1.24243404,7.95157787 C1.24243404,8.3615811 1.57789123,8.69703829 1.98789447,8.69703829 L6.83338723,8.69703829 C7.03838885,8.69703829 7.20611744,8.5293097 7.20611744,8.32430808 C7.20611744,8.11930647 7.03838885,7.95157787 6.83338723,7.95157787 L2.36062468,7.95157787 C2.15562306,7.95157787 1.98789447,7.78384927 1.98789447,7.57884766 L1.98789447,3.10608511 C1.98789447,2.90108349 1.82016587,2.73335489 1.61516425,2.73335489 Z M7.95157787,1.24243404 L3.47881532,1.24243404 C3.06881208,1.24243404 2.73335489,1.57789123 2.73335489,1.98789447 L2.73335489,6.46065702 C2.73335489,6.87066025 3.06881208,7.20611744 3.47881532,7.20611744 L7.95157787,7.20611744 C8.3615811,7.20611744 8.69703829,6.87066025 8.69703829,6.46065702 L8.69703829,1.98789447 C8.69703829,1.57789123 8.3615811,1.24243404 7.95157787,1.24243404 Z M4.96973617,5.9015617 L4.96973617,2.54698979 L7.00857043,4.07518366 C7.10920759,4.1497297 7.10920759,4.29882179 7.00857043,4.37336783 L4.96973617,5.9015617 Z" id="Shape" fill="#FFFFFF"></path>
                </g>
                <path d="M23.1478125,43.048838 C22.9249157,56.043397 3.49548874,56.0415362 3.27446245,43.0485279 C3.4973592,30.054279 22.9264744,30.0561399 23.1478125,43.048838 Z" id="Stroke-156" stroke="#F0C66C" stroke-width="0.155304255"></path>
                <path d="M31.091884,16.4498606 C31.2932704,28.1837002 48.8375832,28.1821495 49.0374109,16.4495504 C48.8360244,4.71571085 31.2917117,4.71757169 31.091884,16.4498606" id="Fill-166" fill-opacity="0.4" fill="#EF951E"></path>
                <g id="Icons/content/edit-24px" transform="translate(35.5139, 11.4677)">
                    <path d="M1.65657872,5.45842689 L1.65657872,6.62217344 C1.65657872,6.92449906 1.8222366,7.20611744 2.08728919,7.35106808 L4.15801259,8.48168306 C4.4064994,8.61835081 4.70468357,8.61835081 4.95317038,8.48168306 L7.02389378,7.35106808 C7.28894638,7.20611744 7.45460425,6.92449906 7.45460425,6.62217344 L7.45460425,5.45842689 L4.95317038,6.82510434 C4.70468357,6.96177208 4.4064994,6.96177208 4.15801259,6.82510434 L1.65657872,5.45842689 Z" id="Path" fill="#FFFFFF"></path>
                    <rect id="Size" fill="#D8D8D8" opacity="0" x="0" y="0" width="9.93947234" height="9.93947234"></rect>
                    <path d="M4.15801259,1.45778928 L0.666772936,3.36285481 C0.381013106,3.52022979 0.381013106,3.93437447 0.666772936,4.09174945 L4.15801259,5.99681498 C4.4064994,6.13348272 4.70468357,6.13348272 4.95317038,5.99681498 L8.28289361,4.17871983 L8.28289361,6.62631489 C8.28289361,6.85409447 8.46925872,7.04045957 8.69703829,7.04045957 C8.92481787,7.04045957 9.11118298,6.85409447 9.11118298,6.62631489 L9.11118298,3.97164749 C9.11118298,3.81841396 9.02835404,3.68174621 8.89582774,3.60720017 L4.95317038,1.45778928 C4.70468357,1.32526298 4.4064994,1.32526298 4.15801259,1.45778928 Z" id="Path" fill="#FFFFFF"></path>
                </g>
                <path d="M30.1278789,16.4498606 C30.3510874,29.4444196 49.7802026,29.4425587 50.0012289,16.4495504 C49.7783322,3.45530159 30.3492169,3.45716243 30.1278789,16.4498606 Z" id="Stroke-168" stroke="#F0C66C" stroke-width="0.155304255"></path>
                <path d="M92.8466303,17.7768569 C92.6452439,29.5110067 75.1009311,29.5091458 74.9011034,17.7765468 C75.1024898,6.04301733 92.6468026,6.04487817 92.8466303,17.7768569" id="Fill-174" fill-opacity="0.4" fill="#EF951E"></path>
                <g id="Icons/content/edit-24px" transform="translate(78.9991, 12.7082)">
                    <rect id="Size" fill="#D8D8D8" opacity="0" x="0" y="0" width="9.93947234" height="9.93947234"></rect>
                    <path d="M2.0707234,2.89901276 L7.86874893,2.89901276 C8.09652851,2.89901276 8.28289361,3.08537787 8.28289361,3.31315745 L8.28289361,3.31315745 C8.28289361,3.54093702 8.09652851,3.72730213 7.86874893,3.72730213 L2.0707234,3.72730213 C1.84294383,3.72730213 1.65657872,3.54093702 1.65657872,3.31315745 L1.65657872,3.31315745 C1.65657872,3.08537787 1.84294383,2.89901276 2.0707234,2.89901276 Z M2.0707234,5.38388085 L7.86874893,5.38388085 C8.09652851,5.38388085 8.28289361,5.19751574 8.28289361,4.96973617 L8.28289361,4.96973617 C8.28289361,4.74195659 8.09652851,4.55559149 7.86874893,4.55559149 L2.0707234,4.55559149 C1.84294383,4.55559149 1.65657872,4.74195659 1.65657872,4.96973617 L1.65657872,4.96973617 C1.65657872,5.19751574 1.84294383,5.38388085 2.0707234,5.38388085 Z M2.0707234,7.04045957 L4.14144681,7.04045957 C4.36922638,7.04045957 4.55559149,6.85409447 4.55559149,6.62631489 L4.55559149,6.62631489 C4.55559149,6.39853532 4.36922638,6.21217021 4.14144681,6.21217021 L2.0707234,6.21217021 C1.84294383,6.21217021 1.65657872,6.39853532 1.65657872,6.62631489 L1.65657872,6.62631489 C1.65657872,6.85409447 1.84294383,7.04045957 2.0707234,7.04045957 Z M2.0707234,8.69703829 L4.14144681,8.69703829 C4.36922638,8.69703829 4.55559149,8.51067319 4.55559149,8.28289361 L4.55559149,8.28289361 C4.55559149,8.05511404 4.36922638,7.86874893 4.14144681,7.86874893 L2.0707234,7.86874893 C1.84294383,7.86874893 1.65657872,8.05511404 1.65657872,8.28289361 L1.65657872,8.28289361 C1.65657872,8.51067319 1.84294383,8.69703829 2.0707234,8.69703829 Z M1.65657872,1.65657872 L1.65657872,1.65657872 C1.65657872,1.8843583 1.84294383,2.0707234 2.0707234,2.0707234 L7.86874893,2.0707234 C8.09652851,2.0707234 8.28289361,1.8843583 8.28289361,1.65657872 L8.28289361,1.65657872 C8.28289361,1.42879915 8.09652851,1.24243404 7.86874893,1.24243404 L2.0707234,1.24243404 C1.84294383,1.24243404 1.65657872,1.42879915 1.65657872,1.65657872 Z" id="Combined-Shape" fill="#FFFFFF"></path>
                    <path d="M6.38196953,7.52500885 L6.08792681,7.23096612 C5.92641038,7.0694497 5.66549923,7.0694497 5.50398281,7.23096612 L5.50398281,7.23096612 C5.34246638,7.39248255 5.34246638,7.6533937 5.50398281,7.81491012 L6.09206825,8.40299557 C6.25358468,8.564512 6.51449583,8.564512 6.67601225,8.40299557 L7.98885089,7.09015693 C8.15036732,6.92864051 8.15036732,6.66772936 7.98885089,6.50621293 L7.98885089,6.50621293 C7.82733447,6.34469651 7.56642332,6.34469651 7.40490689,6.50621293 L6.38196953,7.52500885 Z" id="Path" fill="#FFFFFF"></path>
                </g>
                <path d="M93.8106042,17.7768569 C93.5877075,30.7714159 74.1582805,30.7695551 73.9372542,17.7765468 C74.1601509,4.78229793 93.5895779,4.78415877 93.8106042,17.7768569 Z" id="Stroke-176" stroke="#F0C66C" stroke-width="0.155304255"></path>
                <line x1="0" y1="102.84493" x2="114" y2="102.84493" id="Stroke-184" stroke="#315782" stroke-width="0.310608511" stroke-linecap="round"></line>
            </g>
        </g>
    </g>
</svg>