<?xml version="1.0" encoding="UTF-8"?>
<svg width="379px" height="259px" viewBox="0 0 379 259" version="1.1" xmlns="http://www.w3.org/2000/svg" xmlns:xlink="http://www.w3.org/1999/xlink">
    <title>undraw_preferences_re_49in</title>
    <g id="Mobile-v2" stroke="none" stroke-width="1" fill="none" fill-rule="evenodd">
        <g id="Welcome-screen" transform="translate(-16.000000, -171.000000)" fill-rule="nonzero">
            <g id="undraw_preferences_re_49in" transform="translate(16.000000, 171.000000)">
                <path d="M373.093713,235.453221 C370.466418,244.47659 362.795042,250.793048 354.792828,256.158789 C353.675503,256.908152 352.557822,257.64026 351.439786,258.355114 C351.432214,258.358389 351.424409,258.365411 351.416743,258.368752 C351.36295,258.402964 351.309059,258.437227 351.258937,258.471675 C351.028191,258.61892 350.797361,258.766279 350.568528,258.911867 L350.694227,258.967768 C350.694227,258.967768 350.817653,259.032747 350.682614,258.978184 C350.64242,258.961544 350.600318,258.946598 350.560207,258.929855 C345.91143,257.073662 341.180081,255.08068 337.617495,251.603412 C333.92183,247.992502 331.762097,242.328944 333.763265,237.585237 C334.026314,236.963866 334.358572,236.373492 334.753872,235.825072 C334.916192,235.595112 335.091019,235.375016 335.273038,235.159003 C337.520633,232.443247 341.074228,231.140555 344.566346,231.752222 C348.058464,232.363889 350.944866,234.794589 352.114823,238.108952 C352.702728,232.689826 348.18915,228.150502 343.845496,224.801148 C339.499928,221.453487 334.562139,217.807809 333.722026,212.418766 C333.252873,209.420375 334.30603,206.514647 336.224575,204.182022 C336.283974,204.111149 336.343284,204.040368 336.404462,203.971451 C338.739857,201.254634 342.024564,199.510055 345.602491,199.086177 C352.265863,198.400575 358.738304,201.892387 363.579095,206.479035 C371.370293,213.85863 376.080434,225.193701 373.093713,235.453221 Z" id="Path" fill="#F2F2F2"></path>
                <path d="M361.278412,224.330419 C362.580188,226.26274 363.579648,228.36585 364.245242,230.573365 C364.80811,232.546416 365.058626,234.588668 364.988481,236.632399 C364.806913,240.837861 363.569442,244.940227 361.380157,248.594427 C359.731019,251.366676 357.721238,253.92895 355.398593,256.220338 C354.261215,256.955452 353.123475,257.67364 351.985374,258.374901 C351.977667,258.378114 351.969721,258.385002 351.961918,258.38828 C351.907159,258.421841 351.852301,258.455453 351.80128,258.489246 C351.566392,258.633691 351.331419,258.778248 351.09848,258.921067 C351.09848,258.921067 351.352049,259.039649 351.214613,258.986124 C351.173698,258.9698 351.13084,258.955138 351.09001,258.938714 C351.950646,252.206884 349.336144,245.494882 344.076355,240.933116 C341.478015,238.719216 338.368037,237.122533 335,236.273255 C335.165233,236.047667 335.343197,235.831756 335.528483,235.619851 C336.829287,235.967867 338.095292,236.42493 339.311712,236.9857 C343.660025,238.977897 347.220467,242.252888 349.466027,246.325913 C351.481124,250.024375 352.348391,254.194581 351.965999,258.346886 C352.160432,258.178784 352.355088,258.00703 352.543904,257.836902 C356.139873,254.638345 359.33381,250.966926 361.49537,246.729795 C363.370652,243.141542 364.292323,239.168389 364.179203,235.160281 C364.002795,230.789897 362.177646,226.741798 359.535051,223.217688 C356.638765,219.457946 353.217238,216.093692 349.365542,213.218404 C345.48388,210.252212 341.236359,207.750337 336.717676,205.768559 C336.506011,205.674315 336.408995,205.438269 336.497097,205.231878 C336.527233,205.142698 336.593037,205.068466 336.680212,205.025311 C336.771075,204.987928 336.874849,204.992134 336.962061,205.036735 C337.519971,205.281778 338.074002,205.530174 338.623591,205.789302 C343.201156,207.947918 347.479915,210.640721 351.361572,213.805848 C355.111006,216.855636 358.640882,220.340013 361.278412,224.330419 Z" id="Path" fill="#FFFFFF"></path>
                <path d="M316.512312,0 L4.48239458,0 C2.00771414,0.00224908068 0,2.00416692 0,4.47429818 L0,215.525702 C0,217.995834 2.00771296,219.997754 4.48239458,220 L316.512312,220 C317.823958,220 319.069704,219.426189 319.920671,218.429891 C319.956254,218.391333 319.988893,218.35017 320.018315,218.306745 C320.285881,217.980193 320.502512,217.615184 320.660881,217.224062 C320.886416,216.68622 321,216.108729 321,215.525676 L321,4.47431871 C321,2.00234428 318.98884,0 316.512312,0 L316.512312,0 Z M319.720124,215.525712 C319.720124,216.149967 319.536372,216.76046 319.190505,217.280566 C318.883239,217.73837 318.466248,218.112289 317.977413,218.368354 C317.524545,218.601906 317.022053,218.722403 316.512312,218.722403 L4.48239458,218.722403 C2.71456529,218.722403 1.27984699,217.290317 1.27984699,215.525738 L1.27984699,4.47431871 C1.27984699,2.70973925 2.71456529,1.27765842 4.48239458,1.27765842 L316.512312,1.27765842 C318.281977,1.27765842 319.720124,2.70790849 319.720124,4.47431871 L319.720124,215.525712 Z" id="Shape" fill="#3F3D56"></path>
                <rect id="Rectangle" fill="#3F3D56" x="1" y="17" width="320" height="1"></rect>
                <circle id="Oval" fill="#3F3D56" cx="10.5" cy="10.5" r="3.5"></circle>
                <circle id="Oval" fill="#3F3D56" cx="23.5" cy="10.5" r="3.5"></circle>
                <circle id="Oval" fill="#3F3D56" cx="35.5" cy="10.5" r="3.5"></circle>
                <path d="M207,90 C200.924868,90 196,85.0751322 196,79 C196,72.9248678 200.924868,68 207,68 C213.075132,68 218,72.9248678 218,79 C217.993152,85.0722934 213.072293,89.993152 207,90 Z M207,69.042481 C201.500614,69.042481 197.042481,73.5006141 197.042481,79 C197.042481,84.4993859 201.500614,88.957519 207,88.957519 C212.499386,88.957519 216.957519,84.4993859 216.957519,79 C216.951293,73.503195 212.496805,69.0487069 207,69.042481 L207,69.042481 Z" id="Shape" fill="#0074B6"></path>
                <path d="M204.739802,84 C204.558209,84.0003483 204.381439,83.9333617 204.236154,83.8091415 L204.227144,83.8014358 L202.330149,82.1467851 C201.960656,81.8237888 201.890758,81.2204085 202.174028,80.7990973 C202.457298,80.3777861 202.986467,80.298086 203.35596,80.6210822 L204.584679,81.6954605 L207.488221,77.3762523 C207.624194,77.1740129 207.825057,77.0416481 208.046621,77.0082777 C208.268185,76.9749072 208.492301,77.0432645 208.669663,77.1983115 L208.669907,77.1985222 L208.651888,77.2270512 L208.670398,77.1985222 C209.039307,77.5218108 209.109039,78.1246181 208.826265,78.5459204 L205.411057,83.6239835 C205.250908,83.8611386 205.003027,83.9997171 204.740529,83.9988445 L204.739802,84 Z" id="f1f767dc-4b88-4f47-9e03-7555881e6705-251" fill="#0074B6"></path>
                <path d="M237,90 C230.924868,90 226,85.0751322 226,79 C226,72.9248678 230.924868,68 237,68 C243.075132,68 248,72.9248678 248,79 C247.993224,85.0723233 243.072323,89.9932239 237,90 L237,90 Z M237,69.042481 C231.500614,69.042481 227.042481,73.5006141 227.042481,79 C227.042481,84.4993859 231.500614,88.957519 237,88.957519 C242.499386,88.957519 246.957519,84.4993859 246.957519,79 C246.951356,73.5031689 242.496831,69.048644 237,69.042481 L237,69.042481 Z" id="Shape" fill="#E6E6E6"></path>
                <path d="M240.822466,83.8224106 C240.585471,84.0588375 240.201828,84.0588375 239.964833,83.8224106 L237.691244,81.5488227 C237.585642,81.4434241 237.41465,81.4433989 237.309017,81.5487664 L235.035428,83.8223542 C234.798567,84.0592153 234.414539,84.0592152 234.177678,83.8223542 C233.940816,83.5854931 233.940816,83.2014655 234.177677,82.9646043 L236.451267,80.6910165 C236.556659,80.5854594 236.556684,80.4145 236.451323,80.3089119 L234.177612,78.0351972 C233.940796,77.7983814 233.940796,77.4144274 234.177612,77.1776118 C234.414428,76.9407961 234.798382,76.9407961 235.035198,77.1776116 L237.308914,79.4513216 C237.414502,79.5566828 237.585461,79.5566576 237.691019,79.4512653 L239.964608,77.1776774 C240.201469,76.9408176 240.585496,76.9408186 240.822356,77.1776797 C241.059216,77.4145408 241.059215,77.7985675 240.822353,78.0354273 L238.548764,80.3090152 C238.443403,80.4146473 238.443428,80.5856314 238.548821,80.6912325 L240.82241,82.9648204 C241.058835,83.2017907 241.05886,83.5854092 240.822466,83.8224106 L240.822466,83.8224106 Z" id="Path" fill="#E6E6E6"></path>
                <path d="M207,123 C200.924868,123 196,118.075132 196,112 C196,105.924868 200.924868,101 207,101 C213.075132,101 218,105.924868 218,112 C217.993152,118.072293 213.072293,122.993152 207,123 L207,123 Z M207,102.042481 C201.500614,102.042481 197.042481,106.500614 197.042481,112 C197.042481,117.499386 201.500614,121.957519 207,121.957519 C212.499386,121.957519 216.957519,117.499386 216.957519,112 C216.951293,106.503195 212.496805,102.048707 207,102.042481 L207,102.042481 Z" id="Shape" fill="#0074B6"></path>
                <path d="M204.739802,117 C204.558209,117.000344 204.381441,116.933358 204.236154,116.809142 L204.227144,116.801436 L202.330149,115.146785 C201.960656,114.823789 201.890758,114.220408 202.174028,113.799097 C202.457298,113.377786 202.986467,113.298086 203.35596,113.621082 L204.584679,114.695461 L207.488221,110.376252 C207.624194,110.174013 207.825057,110.041648 208.046621,110.008278 C208.268185,109.974907 208.492301,110.043265 208.669663,110.198312 L208.669907,110.198522 L208.651888,110.227051 L208.670398,110.198522 C209.039307,110.521811 209.109039,111.124618 208.826265,111.54592 L205.411057,116.623993 C205.250909,116.861149 205.003028,116.999728 204.740529,116.998854 L204.739802,117 Z" id="a793c70c-1521-4e6e-9b61-9683a9490971-252" fill="#0074B6"></path>
                <path d="M237,123 C230.924868,123 226,118.075132 226,112 C226,105.924868 230.924868,101 237,101 C243.075132,101 248,105.924868 248,112 C247.993224,118.072323 243.072323,122.993224 237,123 L237,123 Z M237,102.042481 C231.500614,102.042481 227.042481,106.500614 227.042481,112 C227.042481,117.499386 231.500614,121.957519 237,121.957519 C242.499386,121.957519 246.957519,117.499386 246.957519,112 C246.951356,106.503169 242.496831,102.048644 237,102.042481 Z" id="Shape" fill="#E6E6E6"></path>
                <path d="M240.822457,116.82241 C240.585463,117.05884 240.201818,117.05884 239.964824,116.82241 L237.691235,114.548821 C237.585634,114.443429 237.414649,114.443403 237.309017,114.548765 L235.035428,116.822354 C234.798567,117.059215 234.414539,117.059215 234.177678,116.822354 C233.940816,116.585493 233.940816,116.201465 234.177678,115.964604 L236.451267,113.691014 C236.556659,113.585457 236.556684,113.414498 236.451323,113.308909 L234.177612,111.035198 C233.940796,110.798382 233.940796,110.414428 234.177612,110.177612 C234.414428,109.940796 234.798382,109.940796 235.035198,110.177612 L237.308914,112.451328 C237.414503,112.556688 237.585463,112.556661 237.691019,112.451267 L239.964608,110.177678 C240.201469,109.940818 240.585496,109.940819 240.822356,110.17768 C241.059216,110.414541 241.059215,110.798568 240.822353,111.035428 L238.548764,113.309017 C238.443405,113.414652 238.44343,113.585636 238.548821,113.69124 L240.82241,115.964829 C241.058828,116.2018 241.058849,116.585414 240.822457,116.82241 L240.822457,116.82241 Z" id="Path" fill="#E6E6E6"></path>
                <path d="M207,158 C200.924868,158 196,153.075132 196,147 C196,140.924868 200.924868,136 207,136 C213.075132,136 218,140.924868 218,147 C217.993152,153.072293 213.072293,157.993152 207,158 Z M207,137.042481 C201.500614,137.042481 197.042481,141.500614 197.042481,147 C197.042481,152.499386 201.500614,156.957519 207,156.957519 C212.499386,156.957519 216.957519,152.499386 216.957519,147 C216.951293,141.503195 212.496805,137.048707 207,137.042481 L207,137.042481 Z" id="Shape" fill="#E6E6E6"></path>
                <path d="M204.739802,149 C204.558209,149.000348 204.381439,148.933362 204.236153,148.809141 L204.227144,148.801436 L202.330149,147.146784 C201.960656,146.823788 201.890758,146.220407 202.174028,145.799096 C202.457298,145.377785 202.986467,145.298084 203.35596,145.621081 L204.584679,146.695464 L207.48822,142.376249 C207.624194,142.174011 207.825058,142.041647 208.046622,142.008277 C208.268186,141.974908 208.492301,142.043266 208.669663,142.198313 L208.669906,142.198519 L208.651888,142.227053 L208.670398,142.198519 C209.039307,142.52181 209.109039,143.124619 208.826264,143.545923 L205.411056,148.623993 C205.250908,148.861149 205.003028,148.99973 204.740529,148.998859 L204.739802,149 Z" id="b02a55c8-7c5c-410c-bde7-66a7a3b003d7-253" fill="#E6E6E6"></path>
                <path d="M237,158 C230.924868,158 226,153.075132 226,147 C226,140.924868 230.924868,136 237,136 C243.075132,136 248,140.924868 248,147 C247.993224,153.072323 243.072323,157.993224 237,158 L237,158 Z M237,137.042481 C231.500614,137.042481 227.042481,141.500614 227.042481,147 C227.042481,152.499386 231.500614,156.957519 237,156.957519 C242.499386,156.957519 246.957519,152.499386 246.957519,147 C246.951356,141.503169 242.496831,137.048644 237,137.042481 L237,137.042481 Z" id="Shape" fill="#E6E6E6"></path>
                <path d="M240.822706,148.822415 C240.585704,149.058847 240.202043,149.058847 239.965042,148.822415 L237.691369,146.548827 C237.585766,146.443434 237.414775,146.443406 237.309138,146.548766 L235.035466,148.822354 C234.798596,149.059215 234.414554,149.059215 234.177684,148.822354 C233.940814,148.585493 233.940814,148.201465 234.177684,147.964604 L236.451356,145.691016 C236.55675,145.585457 236.556776,145.414498 236.451413,145.308907 L234.177618,143.035197 C233.940794,142.798381 233.940794,142.414427 234.177618,142.177612 C234.414443,141.940796 234.798411,141.940796 235.035236,142.177612 L237.309035,144.451326 C237.414627,144.556689 237.585595,144.556661 237.691153,144.451265 L239.964825,142.177677 C240.201833,141.941628 240.58521,141.942013 240.821743,142.178537 C241.058275,142.415062 241.05866,142.798424 240.822602,143.035423 L238.54893,145.30901 C238.443567,145.414645 238.443592,145.585629 238.548987,145.691232 L240.822659,147.96482 C241.059095,148.201793 241.059116,148.585417 240.822706,148.822415 L240.822706,148.822415 Z" id="Path" fill="#E6E6E6"></path>
                <path d="M378.48564,259 L182.51436,259 C182.230287,259 182,258.776142 182,258.5 C182,258.223858 182.230287,258 182.51436,258 L378.48564,258 C378.769713,258 379,258.223858 379,258.5 C379,258.776142 378.769713,259 378.48564,259 Z" id="Path" fill="#3F3D56"></path>
                <path d="M210.502441,117.243401 C211.793284,118.046484 213.363523,118.219987 214.790641,117.717225 C216.217759,117.214462 217.355158,116.087079 217.896789,114.63843 L236,115.25845 L231.082424,107 L214.645228,107.677325 C212.165352,106.884906 209.501415,108.126311 208.444462,110.566905 C207.38751,113.007499 208.271639,115.875826 210.502421,117.243422 L210.502441,117.243401 Z" id="Path" fill="#FFB8B8"></path>
                <path d="M313.559532,159.17743 C314.505304,158.010404 314.924717,156.450083 314.704915,154.916319 C314.485113,153.382555 313.648675,152.032902 312.420671,151.230525 L316,133 L307.666124,136.535426 L305.544806,153.30542 C304.410772,155.678829 305.096726,158.594813 307.141491,160.092915 C309.186256,161.591018 311.943517,161.197716 313.559532,159.17743 L313.559532,159.17743 Z" id="Path" fill="#FFB8B8"></path>
                <polygon id="Path" fill="#FFB8B8" points="270.998895 250 264.223168 249.999514 261 227 271 227.000486"></polygon>
                <path d="M270.999635,259 L252,258.999352 L252,258.779056 C252,256.981114 252.779112,255.256806 254.165995,253.985479 C255.552878,252.714152 257.433898,252 259.395232,252 L259.395713,252 L271,252.000441 L270.999635,259 Z" id="Path" fill="#2F2E41"></path>
                <polygon id="Path" fill="#FFB8B8" points="301.998895 250 295.223168 249.999514 292 227 302 227.000486"></polygon>
                <path d="M302.999635,259 L284,258.999352 L284,258.779056 C284,256.981114 284.779112,255.256806 286.165995,253.985479 C287.552878,252.714152 289.433898,252 291.395232,252 L291.395713,252 L303,252.000441 L302.999635,259 Z" id="Path" fill="#2F2E41"></path>
                <path d="M272.179536,240.998502 L263.228033,240.642313 C261.95752,240.587801 260.966002,239.529527 261.000893,238.265227 L263.522831,155.992534 L263.68754,155.933417 C279.376121,150.28903 292.354634,150.715858 303.365653,157.236411 L303.48881,157.309553 L305,237.439637 C305.011412,238.059349 304.772148,238.657754 304.335647,239.100152 C303.899147,239.54255 303.302091,239.791763 302.678876,239.791694 L295.130719,239.791694 C294.022125,239.789772 293.068929,239.010063 292.853084,237.928598 L282.570631,185.906733 C282.497351,185.535298 282.163304,185.272057 281.782976,185.286031 C281.402648,185.300006 281.089042,185.587044 281.043519,185.962843 L274.576424,238.970101 C274.429228,240.126277 273.44298,240.994736 272.271209,241 C272.240869,241 272.210138,241 272.179536,240.998502 Z" id="Path" fill="#2F2E41"></path>
                <circle id="Oval" fill="#FFB8B8" cx="281" cy="70" r="13"></circle>
                <path d="M224.104369,116.596649 C223.965467,116.136213 223.965205,115.642813 224.103617,115.182218 L225.396122,110.887996 C225.684945,109.936352 226.51596,109.272865 227.477039,109.22658 L243.843548,108.476293 L270.396368,94.3622055 C272.904432,93.5314305 275.649422,94.1525871 277.595686,95.9913201 C279.541949,97.8300531 280.393243,100.606486 279.828383,103.273103 C279.263523,105.939721 277.368488,108.090632 274.858252,108.914325 L258.585727,118.701489 C253.647326,121.672693 247.836252,122.682704 242.23345,121.543644 L225.845965,118.214329 C225.208801,118.084512 224.654836,117.680089 224.322131,117.101852 C224.230578,116.942949 224.157482,116.773368 224.104369,116.596649 Z" id="Path" fill="#CCCCCC"></path>
                <path d="M312.754525,147.862998 C312.318498,148.022483 311.844948,148.043253 311.396999,147.922539 L307.220575,146.795012 C306.294933,146.542722 305.622849,145.730606 305.537631,144.761416 L304.122769,128.255291 L289.449054,102.01199 C288.545608,99.5123753 289.025453,96.7132285 290.707577,94.6704783 C292.389702,92.6277281 295.018111,91.6522499 297.601284,92.1120257 C300.184457,92.5718015 302.329274,94.3968605 303.226641,96.8987312 L313.311024,112.934316 C316.37239,117.800764 317.588464,123.630503 316.733038,129.339113 L314.233224,146.035989 C314.135679,146.685198 313.771032,147.261753 313.230167,147.621959 C313.081541,147.721074 312.921883,147.801983 312.754525,147.862998 L312.754525,147.862998 Z" id="Path" fill="#CCCCCC"></path>
                <path d="M268.571433,91.0196607 C272.849389,86.1980415 279.024971,83.6318469 285.361388,84.0427814 C285.566984,84.0558471 285.771745,84.0705869 285.975671,84.0870005 L285.975917,84.0870005 C291.974141,84.5744301 297.476737,87.6958696 301.074992,92.6522045 C304.733305,97.6778101 306.106194,104.080269 304.842248,110.220775 C302.458061,121.820464 303.061461,133.858885 306.59277,145.145383 L309.891409,155.672263 C310.105785,156.355888 309.999225,157.10306 309.602975,157.694696 C309.206726,158.286333 308.56569,158.655389 307.86783,158.693651 L291.00381,159.625475 L286.68825,151.964192 L286.68825,159.863931 L266.191665,160.996481 C266.150843,160.998992 266.110261,161 266.06993,161 C265.441129,161 264.841034,160.729468 264.41471,160.254427 C263.988386,159.779386 263.774633,159.142843 263.825123,158.498673 L266.141796,128.973683 L263.235993,108.920873 C262.283296,102.431158 264.245538,95.8475381 268.571433,91.0196607 Z" id="Path" fill="#CCCCCC"></path>
                <path d="M291.455223,82.357134 C290.241126,83.021232 285.442157,83.4615701 285.100293,82.1702224 L285.092968,82.1418501 C284.854975,81.1957098 285.052605,80.2077267 285.120907,79.2370817 C285.189209,78.2664367 285.089268,77.2001382 284.393864,76.4864623 C283.097547,75.1560939 280.791319,75.8613342 278.916848,75.5249532 C276.645389,75.0429622 275.104294,73.0317272 275.318307,70.8286078 C275.345002,70.6268553 275.38686,70.4248745 275.433806,70.2230205 C275.67148,69.1862116 275.384254,68.1034392 274.657824,67.2977564 C273.931393,66.4920735 272.849741,66.0566248 271.735585,66.1213296 C269.841243,66.2243071 267.796446,66.769932 266.229135,65.4360767 C265.017121,64.4046065 264.721419,61.7195884 265.253945,60.2583524 C266.148889,57.8026571 271.881661,56.5170549 274.384681,55.8103224 C280.653913,54.0883206 287.40554,55.1414937 292.767167,58.6777704 C294.348157,59.7371561 295.824629,61.0682604 296.498474,62.791871 C297.172319,64.5154815 296.847231,66.690033 295.327747,67.8278458 C297.724789,70.240494 298.588625,73.6842198 297.594797,76.865559 C296.844294,79.1645016 293.26247,81.3685875 291.455223,82.357134 Z" id="Path" fill="#2F2E41"></path>
                <path d="M116.059619,83 L34.940381,83 C32.7634402,82.9977914 31,81.4314351 31,79.5 C31,77.5685649 32.7634402,76.0022086 34.940381,76 L116.059619,76 C118.23656,76.0022086 120,77.5685649 120,79.5 C120,81.4314351 118.23656,82.9977914 116.059619,83 L116.059619,83 Z" id="Path" fill="#0074B6"></path>
                <path d="M166.485294,85 L27.5147059,85 C27.2304417,85 27,84.7761424 27,84.5 C27,84.2238576 27.2304417,84 27.5147059,84 L166.485294,84 C166.769558,84 167,84.2238576 167,84.5 C167,84.7761424 166.769558,85 166.485294,85 Z" id="Path" fill="#3F3D56"></path>
                <path d="M34.9446895,115 C32.7660977,115 31,113.432997 31,111.5 C31,109.567003 32.7660977,108 34.9446895,108 L116.059819,108 C118.236649,108.002209 120,109.568565 120,111.5 C120,113.431435 118.236649,114.997791 116.059819,115 L34.9446895,115 Z" id="Path" fill="#0074B6"></path>
                <path d="M166.485294,119 L27.5147059,119 C27.2304417,119 27,118.776142 27,118.5 C27,118.223858 27.2304417,118 27.5147059,118 L166.485294,118 C166.769558,118 167,118.223858 167,118.5 C167,118.776142 166.769558,119 166.485294,119 Z" id="Path" fill="#3F3D56"></path>
                <path d="M116.059819,149 L34.9446895,149 C32.7660977,149 31,147.432997 31,145.5 C31,143.567003 32.7660977,142 34.9446895,142 L116.059819,142 C118.236649,142.002209 120,143.568565 120,145.5 C120,147.431435 118.236649,148.997791 116.059819,149 L116.059819,149 Z" id="Path" fill="#F2F2F2"></path>
                <path d="M166.485294,152 L27.5147059,152 C27.2304417,152 27,151.776142 27,151.5 C27,151.223858 27.2304417,151 27.5147059,151 L166.485294,151 C166.769558,151 167,151.223858 167,151.5 C167,151.776142 166.769558,152 166.485294,152 Z" id="Path" fill="#3F3D56"></path>
            </g>
        </g>
    </g>
</svg>